<?xml version="1.0" standalone="no"?>
<!DOCTYPE svg PUBLIC "-//W3C//DTD SVG 20010904//EN"
 "http://www.w3.org/TR/2001/REC-SVG-20010904/DTD/svg10.dtd">
<svg version="1.0" xmlns="http://www.w3.org/2000/svg"
 width="262.000000pt" height="262.000000pt" viewBox="0 0 262.000000 262.000000"
 preserveAspectRatio="xMidYMid meet">
<metadata>
Created by potrace 1.14, written by Peter Selinger 2001-2017
</metadata>
<g transform="translate(0.000000,262.000000) scale(0.100000,-0.100000)"
fill="#000000" stroke="none">
<path d="M94 2612 c-12 -2 -34 -17 -50 -33 l-29 -30 -3 -1227 c-2 -1148 -1
-1229 15 -1259 10 -18 31 -38 49 -45 47 -19 2435 -18 2480 0 68 29 64 -63 64
1292 0 1132 -1 1224 -17 1250 -9 16 -31 35 -47 42 -24 10 -287 13 -1236 13
-663 0 -1215 -1 -1226 -3z"/>
</g>
</svg>
